<svg width="33" height="33" viewBox="0 0 33 33" fill="none" xmlns="http://www.w3.org/2000/svg">
<rect x="0.210693" y="0.141602" width="32" height="32" rx="16" fill="url(#paint0_radial_9_9)"/>
<path d="M16.2133 8.27194C18.7785 8.27194 19.0796 8.28338 20.0935 8.32912C21.0311 8.37104 21.5381 8.52732 21.8773 8.66072C22.3271 8.83605 22.6472 9.04187 22.9826 9.37729C23.3181 9.71271 23.5277 10.0329 23.6992 10.4826C23.8288 10.8219 23.9889 11.3288 24.0308 12.2664C24.0765 13.2803 24.088 13.5814 24.088 16.1466C24.088 18.7118 24.0765 19.0129 24.0308 20.0267C23.9889 20.9644 23.8326 21.4713 23.6992 21.8105C23.5239 22.2603 23.3181 22.5805 22.9826 22.9159C22.6472 23.2513 22.3271 23.4609 21.8773 23.6325C21.5381 23.762 21.0311 23.9221 20.0935 23.9641C19.0796 24.0098 18.7785 24.0212 16.2133 24.0212C13.6482 24.0212 13.3471 24.0098 12.3332 23.9641C11.3955 23.9221 10.8886 23.7659 10.5494 23.6325C10.0996 23.4571 9.77945 23.2513 9.44404 22.9159C9.10862 22.5805 8.89899 22.2603 8.72747 21.8105C8.59787 21.4713 8.43779 20.9644 8.39586 20.0267C8.35012 19.0129 8.33869 18.7118 8.33869 16.1466C8.33869 13.5814 8.35012 13.2803 8.39586 12.2664C8.43779 11.3288 8.59406 10.8219 8.72747 10.4826C8.9028 10.0329 9.10862 9.71271 9.44404 9.37729C9.77945 9.04187 10.0996 8.83224 10.5494 8.66072C10.8886 8.53113 11.3955 8.37104 12.3332 8.32912C13.3471 8.27957 13.652 8.27194 16.2133 8.27194ZM16.2133 6.5415C13.6062 6.5415 13.2784 6.55294 12.2531 6.59868C11.2316 6.64442 10.5341 6.80831 9.92429 7.04463C9.29157 7.28857 8.75796 7.62017 8.22434 8.15379C7.69073 8.6874 7.36293 9.22483 7.11518 9.85373C6.87887 10.4636 6.71497 11.1611 6.66923 12.1864C6.6235 13.2079 6.61206 13.5357 6.61206 16.1428C6.61206 18.7499 6.6235 19.0777 6.66923 20.103C6.71497 21.1245 6.87887 21.822 7.11518 22.4356C7.35912 23.0683 7.69073 23.602 8.22434 24.1356C8.75796 24.6692 9.29539 24.997 9.92429 25.2447C10.5341 25.481 11.2317 25.6449 12.257 25.6907C13.2823 25.7364 13.6062 25.7479 16.2171 25.7479C18.8281 25.7479 19.152 25.7364 20.1773 25.6907C21.1988 25.6449 21.8963 25.481 22.51 25.2447C23.1427 25.0008 23.6763 24.6692 24.21 24.1356C24.7436 23.602 25.0714 23.0645 25.3191 22.4356C25.5554 21.8258 25.7193 21.1283 25.7651 20.103C25.8108 19.0777 25.8222 18.7537 25.8222 16.1428C25.8222 13.5319 25.8108 13.2079 25.7651 12.1826C25.7193 11.1611 25.5554 10.4636 25.3191 9.84992C25.0752 9.21721 24.7436 8.68359 24.21 8.14997C23.6763 7.61636 23.1389 7.28857 22.51 7.04082C21.9002 6.8045 21.2026 6.6406 20.1773 6.59487C19.1482 6.55294 18.8204 6.5415 16.2133 6.5415Z" fill="white"/>
<path d="M16.2133 8.27194C18.7785 8.27194 19.0796 8.28338 20.0935 8.32912C21.0311 8.37104 21.5381 8.52732 21.8773 8.66072C22.3271 8.83605 22.6472 9.04187 22.9826 9.37729C23.3181 9.71271 23.5277 10.0329 23.6992 10.4826C23.8288 10.8219 23.9889 11.3288 24.0308 12.2664C24.0765 13.2803 24.088 13.5814 24.088 16.1466C24.088 18.7118 24.0765 19.0129 24.0308 20.0267C23.9889 20.9644 23.8326 21.4713 23.6992 21.8105C23.5239 22.2603 23.3181 22.5805 22.9826 22.9159C22.6472 23.2513 22.3271 23.4609 21.8773 23.6325C21.5381 23.762 21.0311 23.9221 20.0935 23.9641C19.0796 24.0098 18.7785 24.0212 16.2133 24.0212C13.6482 24.0212 13.3471 24.0098 12.3332 23.9641C11.3955 23.9221 10.8886 23.7659 10.5494 23.6325C10.0996 23.4571 9.77945 23.2513 9.44404 22.9159C9.10862 22.5805 8.89899 22.2603 8.72747 21.8105C8.59787 21.4713 8.43779 20.9644 8.39586 20.0267C8.35012 19.0129 8.33869 18.7118 8.33869 16.1466C8.33869 13.5814 8.35012 13.2803 8.39586 12.2664C8.43779 11.3288 8.59406 10.8219 8.72747 10.4826C8.9028 10.0329 9.10862 9.71271 9.44404 9.37729C9.77945 9.04187 10.0996 8.83224 10.5494 8.66072C10.8886 8.53113 11.3955 8.37104 12.3332 8.32912C13.3471 8.27957 13.652 8.27194 16.2133 8.27194Z" fill="white"/>
<path d="M16.2131 11.2146C13.4917 11.2146 11.281 13.4215 11.281 16.1467C11.281 18.872 13.4879 21.0789 16.2131 21.0789C18.9384 21.0789 21.1453 18.872 21.1453 16.1467C21.1453 13.4215 18.9384 11.2146 16.2131 11.2146ZM16.2131 19.3446C14.4446 19.3446 13.0114 17.9115 13.0114 16.1429C13.0114 14.3744 14.4446 12.9412 16.2131 12.9412C17.9817 12.9412 19.4148 14.3744 19.4148 16.1429C19.4148 17.9115 17.9817 19.3446 16.2131 19.3446Z" fill="url(#paint1_radial_9_9)"/>
<path d="M21.3398 12.1674C21.9755 12.1674 22.4909 11.652 22.4909 11.0163C22.4909 10.3806 21.9755 9.86523 21.3398 9.86523C20.7041 9.86523 20.1887 10.3806 20.1887 11.0163C20.1887 11.652 20.7041 12.1674 21.3398 12.1674Z" fill="url(#paint2_radial_9_9)"/>
<defs>
<radialGradient id="paint0_radial_9_9" cx="0" cy="0" r="1" gradientUnits="userSpaceOnUse" gradientTransform="translate(0.210697 -4.85069) rotate(51.501) scale(86.4552 221.58)">
<stop offset="0.125" stop-color="#181818"/>
<stop offset="1" stop-color="#FEB62F"/>
</radialGradient>
<radialGradient id="paint1_radial_9_9" cx="0" cy="0" r="1" gradientUnits="userSpaceOnUse" gradientTransform="translate(11.281 9.67569) rotate(51.501) scale(26.6505 68.3039)">
<stop offset="0.125" stop-color="#181818"/>
<stop offset="1" stop-color="#FEB62F"/>
</radialGradient>
<radialGradient id="paint2_radial_9_9" cx="0" cy="0" r="1" gradientUnits="userSpaceOnUse" gradientTransform="translate(20.1887 9.50608) rotate(51.501) scale(6.21983 15.9411)">
<stop offset="0.125" stop-color="#181818"/>
<stop offset="1" stop-color="#FEB62F"/>
</radialGradient>
</defs>
</svg>
