<svg width="100" height="100" viewBox="0 0 100 100" fill="none" xmlns="http://www.w3.org/2000/svg">
<path fill-rule="evenodd" clip-rule="evenodd" d="M50 100C77.6142 100 100 77.6142 100 50C100 22.3858 77.6142 0 50 0C22.3858 0 0 22.3858 0 50C0 77.6142 22.3858 100 50 100ZM27.4077 42.4509C33.0631 42.4509 37.6477 37.8663 37.6477 32.211C37.6477 26.5556 33.0631 21.971 27.4077 21.971C21.7524 21.971 17.1678 26.5556 17.1678 32.211C17.1678 37.8663 21.7524 42.4509 27.4077 42.4509ZM82.8323 32.211C82.8323 37.8663 78.2477 42.4509 72.5923 42.4509C66.937 42.4509 62.3524 37.8663 62.3524 32.211C62.3524 26.5556 66.937 21.971 72.5923 21.971C78.2477 21.971 82.8323 26.5556 82.8323 32.211ZM72.5923 78.029C78.2477 78.029 82.8323 73.4444 82.8323 67.7891C82.8323 62.1337 78.2477 57.5491 72.5923 57.5491C66.937 57.5491 62.3524 62.1337 62.3524 67.7891C62.3524 73.4444 66.937 78.029 72.5923 78.029ZM37.6477 67.7891C37.6477 73.4444 33.0631 78.029 27.4077 78.029C21.7524 78.029 17.1678 73.4444 17.1678 67.7891C17.1678 62.1337 21.7524 57.5491 27.4077 57.5491C33.0631 57.5491 37.6477 62.1337 37.6477 67.7891ZM50 53.1523C51.7409 53.1523 53.1522 51.741 53.1522 50C53.1522 48.259 51.7409 46.8477 50 46.8477C48.259 46.8477 46.8477 48.259 46.8477 50C46.8477 51.741 48.259 53.1523 50 53.1523Z" fill="url(#paint0_linear_99_148)"/>
<defs>
<linearGradient id="paint0_linear_99_148" x1="23.6143" y1="118.87" x2="82.7975" y2="-32.7864" gradientUnits="userSpaceOnUse">
<stop stop-color="#FEB62F"/>
<stop offset="1" stop-color="#181818" stop-opacity="0"/>
</linearGradient>
</defs>
</svg>
