<svg width="256" height="36" viewBox="0 0 256 36" fill="none" xmlns="http://www.w3.org/2000/svg">
<path d="M22.7378 7.93327V28.3499L38.7795 18.1416L22.7378 7.93327Z" fill="white"/>
<path d="M3.92795 17.0781H4.93022C5.29295 17.0781 5.58408 17.0351 5.80363 16.9492C6.03272 16.8538 6.23795 16.6963 6.41931 16.4767L12.9627 8.87377C13.1727 8.61604 13.3875 8.43945 13.607 8.34399C13.8266 8.23899 14.0986 8.18649 14.4232 8.18649H17.0291L9.41181 16.9492C9.2209 17.1974 9.02999 17.3979 8.83908 17.5506C8.65772 17.7033 8.46681 17.8322 8.26636 17.9372C8.79136 18.1185 9.24954 18.486 9.6409 19.0397L17.5589 28.7474H14.91C14.7191 28.7474 14.552 28.7331 14.4089 28.7044C14.2752 28.6758 14.1559 28.6376 14.0509 28.5899C13.9554 28.5326 13.8648 28.4658 13.7789 28.3894C13.7025 28.3131 13.6309 28.2224 13.5641 28.1174L6.79158 20.0992C6.69613 19.9751 6.60067 19.8701 6.50522 19.7842C6.40976 19.6983 6.29999 19.6315 6.1759 19.5838C6.05181 19.5265 5.90863 19.4883 5.74636 19.4692C5.58408 19.4406 5.39317 19.4263 5.17363 19.4263H3.92795V28.7474H0.878174V8.18649H3.92795V17.0781Z" fill="#181818"/>
<path d="M59.704 18.4669C59.704 20.0038 59.4558 21.4022 58.9594 22.6622C58.4726 23.9222 57.7806 25.0056 56.8833 25.9124C55.986 26.8097 54.9122 27.5065 53.6617 28.0029C52.4112 28.4992 51.0224 28.7474 49.4951 28.7474H41.7633V8.18649H49.4951C51.0224 8.18649 52.4112 8.43468 53.6617 8.93104C54.9122 9.4274 55.986 10.129 56.8833 11.0358C57.7806 11.9331 58.4726 13.0165 58.9594 14.286C59.4558 15.546 59.704 16.9397 59.704 18.4669ZM56.5826 18.4669C56.5826 17.2451 56.4156 16.1522 56.0815 15.1881C55.7474 14.2144 55.2701 13.3935 54.6497 12.7254C54.0387 12.0476 53.2942 11.5322 52.416 11.179C51.5474 10.8258 50.5737 10.6492 49.4951 10.6492H44.8274V26.2847H49.4951C50.5737 26.2847 51.5474 26.1081 52.416 25.7549C53.2942 25.4017 54.0387 24.891 54.6497 24.2229C55.2701 23.5451 55.7474 22.7242 56.0815 21.7601C56.4156 20.796 56.5826 19.6983 56.5826 18.4669Z" fill="#181818"/>
<path d="M77.0196 18.7676C77.7928 18.7676 78.4705 18.6674 79.0528 18.4669C79.6446 18.2665 80.1362 17.9849 80.5275 17.6222C80.9284 17.2499 81.2291 16.8108 81.4296 16.3049C81.63 15.7894 81.7303 15.2215 81.7303 14.601C81.7303 13.3506 81.3389 12.3674 80.5562 11.6515C79.783 10.9356 78.6041 10.5776 77.0196 10.5776H73.8409V18.7676H77.0196ZM77.0196 8.18649C78.3369 8.18649 79.4823 8.33922 80.4559 8.64468C81.4296 8.95013 82.2362 9.38445 82.8757 9.94763C83.5153 10.5013 83.9878 11.1742 84.2932 11.9665C84.6082 12.7588 84.7657 13.6369 84.7657 14.601C84.7657 15.5651 84.5987 16.4529 84.2646 17.2642C83.9305 18.066 83.4389 18.7581 82.7898 19.3404C82.1407 19.9226 81.3294 20.376 80.3557 20.7006C79.3916 21.0156 78.2796 21.1731 77.0196 21.1731H73.8409V28.7474H70.7912V8.18649H77.0196Z" fill="#181818"/>
<path d="M93.9571 18.0947C94.7398 18.0947 95.4271 17.9992 96.0189 17.8083C96.6203 17.6174 97.1214 17.3501 97.5223 17.0065C97.9232 16.6533 98.2239 16.2381 98.4244 15.7608C98.6248 15.274 98.725 14.7394 98.725 14.1572C98.725 12.9735 98.3337 12.081 97.551 11.4797C96.7778 10.8783 95.6132 10.5776 94.0573 10.5776H91.1794V18.0947H93.9571ZM103.55 28.7474H100.83C100.286 28.7474 99.8896 28.5326 99.6414 28.1031L94.5585 20.9726C94.3962 20.734 94.2196 20.5669 94.0287 20.4715C93.8378 20.3665 93.5514 20.314 93.1696 20.314H91.1794V28.7474H88.1296V8.18649H94.0573C95.3841 8.18649 96.5248 8.3249 97.4794 8.60172C98.4435 8.86899 99.2357 9.25558 99.8562 9.76149C100.486 10.2579 100.949 10.8592 101.245 11.5656C101.55 12.2719 101.703 13.0642 101.703 13.9424C101.703 14.6583 101.593 15.3313 101.374 15.9613C101.154 16.5913 100.83 17.1592 100.4 17.6651C99.9803 18.1615 99.4648 18.591 98.8539 18.9538C98.243 19.3165 97.551 19.5933 96.7778 19.7842C97.1596 20.0133 97.4889 20.3331 97.7657 20.7435L103.55 28.7474Z" fill="#181818"/>
<path d="M125.129 18.4669C125.129 20.0038 124.881 21.4165 124.385 22.7051C123.898 23.9842 123.206 25.0915 122.308 26.0269C121.411 26.9529 120.337 27.6735 119.087 28.189C117.836 28.7044 116.448 28.9622 114.92 28.9622C113.403 28.9622 112.014 28.7044 110.754 28.189C109.503 27.6735 108.429 26.9529 107.532 26.0269C106.644 25.0915 105.952 23.9842 105.456 22.7051C104.96 21.4165 104.711 20.0038 104.711 18.4669C104.711 16.9397 104.96 15.5317 105.456 14.2431C105.952 12.9544 106.644 11.8472 107.532 10.9213C108.429 9.98581 109.503 9.26036 110.754 8.7449C112.014 8.2199 113.403 7.9574 114.92 7.9574C116.448 7.9574 117.836 8.2199 119.087 8.7449C120.337 9.26036 121.411 9.98581 122.308 10.9213C123.206 11.8472 123.898 12.9544 124.385 14.2431C124.881 15.5317 125.129 16.9397 125.129 18.4669ZM122.008 18.4669C122.008 17.2451 121.841 16.1474 121.507 15.1738C121.173 14.2001 120.695 13.3744 120.075 12.6967C119.464 12.019 118.719 11.4988 117.841 11.136C116.973 10.7733 115.999 10.5919 114.92 10.5919C113.842 10.5919 112.863 10.7733 111.985 11.136C111.116 11.4988 110.372 12.019 109.751 12.6967C109.131 13.3744 108.654 14.2001 108.32 15.1738C107.985 16.1474 107.818 17.2451 107.818 18.4669C107.818 19.6983 107.985 20.8008 108.32 21.7744C108.654 22.7385 109.131 23.5595 109.751 24.2372C110.372 24.9149 111.116 25.4351 111.985 25.7979C112.863 26.151 113.842 26.3276 114.92 26.3276C115.999 26.3276 116.973 26.151 117.841 25.7979C118.719 25.4351 119.464 24.9149 120.075 24.2372C120.695 23.5595 121.173 22.7385 121.507 21.7744C121.841 20.8008 122.008 19.6983 122.008 18.4669Z" fill="#181818"/>
<path d="M146.899 18.4669C146.899 20.0038 146.651 21.4022 146.155 22.6622C145.668 23.9222 144.976 25.0056 144.079 25.9124C143.182 26.8097 142.108 27.5065 140.857 28.0029C139.607 28.4992 138.218 28.7474 136.691 28.7474H128.959V8.18649H136.691C138.218 8.18649 139.607 8.43468 140.857 8.93104C142.108 9.4274 143.182 10.129 144.079 11.0358C144.976 11.9331 145.668 13.0165 146.155 14.286C146.651 15.546 146.899 16.9397 146.899 18.4669ZM143.778 18.4669C143.778 17.2451 143.611 16.1522 143.277 15.1881C142.943 14.2144 142.466 13.3935 141.845 12.7254C141.234 12.0476 140.49 11.5322 139.611 11.179C138.743 10.8258 137.769 10.6492 136.691 10.6492H132.023V26.2847H136.691C137.769 26.2847 138.743 26.1081 139.611 25.7549C140.49 25.4017 141.234 24.891 141.845 24.2229C142.466 23.5451 142.943 22.7242 143.277 21.7601C143.611 20.796 143.778 19.6983 143.778 18.4669Z" fill="#181818"/>
<path d="M158.762 26.299C159.583 26.299 160.318 26.1606 160.967 25.8838C161.616 25.6069 162.165 25.2204 162.613 24.724C163.062 24.2181 163.406 23.6215 163.644 22.9342C163.883 22.2374 164.002 21.469 164.002 20.629V8.18649H167.038V20.629C167.038 21.8317 166.847 22.9438 166.465 23.9651C166.083 24.9865 165.534 25.8694 164.818 26.614C164.103 27.3585 163.234 27.9408 162.213 28.3608C161.191 28.7808 160.041 28.9908 158.762 28.9908C157.483 28.9908 156.333 28.7808 155.311 28.3608C154.29 27.9408 153.421 27.3585 152.705 26.614C151.989 25.8694 151.44 24.9865 151.059 23.9651C150.677 22.9438 150.486 21.8317 150.486 20.629V8.18649H153.536V20.6147C153.536 21.4547 153.65 22.2231 153.879 22.9199C154.118 23.6167 154.462 24.2181 154.91 24.724C155.359 25.2204 155.908 25.6069 156.557 25.8838C157.206 26.1606 157.941 26.299 158.762 26.299Z" fill="#181818"/>
<path d="M186.219 24.3374C186.39 24.3374 186.538 24.4042 186.662 24.5379L187.865 25.8551C187.025 26.8479 185.999 27.6163 184.787 28.1604C183.584 28.7045 182.133 28.9765 180.434 28.9765C178.945 28.9765 177.594 28.7188 176.382 28.2033C175.179 27.6879 174.148 26.9672 173.289 26.0413C172.44 25.1154 171.781 24.0081 171.313 22.7194C170.846 21.4308 170.612 20.0133 170.612 18.4669C170.612 16.9206 170.855 15.5031 171.342 14.2144C171.838 12.9258 172.53 11.8185 173.418 10.8926C174.306 9.96672 175.365 9.24604 176.597 8.73058C177.838 8.21513 179.207 7.9574 180.706 7.9574C182.166 7.9574 183.465 8.19604 184.601 8.67331C185.736 9.15058 186.724 9.78536 187.564 10.5776L186.562 11.9951C186.495 12.1001 186.409 12.186 186.304 12.2529C186.209 12.3197 186.08 12.3531 185.918 12.3531C185.736 12.3531 185.522 12.2624 185.274 12.081C185.035 11.8997 184.715 11.6992 184.314 11.4797C183.923 11.2506 183.436 11.0454 182.854 10.864C182.271 10.6826 181.546 10.5919 180.677 10.5919C179.656 10.5919 178.721 10.7733 177.871 11.136C177.021 11.4892 176.286 12.0047 175.666 12.6824C175.055 13.3506 174.578 14.1763 174.234 15.1594C173.9 16.1331 173.733 17.2356 173.733 18.4669C173.733 19.7174 173.91 20.8294 174.263 21.8031C174.616 22.7767 175.103 23.6024 175.723 24.2801C176.344 24.9579 177.074 25.4733 177.914 25.8265C178.754 26.1797 179.661 26.3563 180.634 26.3563C181.226 26.3563 181.756 26.3229 182.224 26.256C182.701 26.1797 183.135 26.0699 183.527 25.9267C183.928 25.7835 184.305 25.6022 184.658 25.3826C185.011 25.1535 185.359 24.8815 185.703 24.5665C185.779 24.4997 185.861 24.4472 185.946 24.409C186.032 24.3613 186.123 24.3374 186.219 24.3374Z" fill="#181818"/>
<path d="M204.947 10.7351H198.418V28.7474H195.383V10.7351H188.825V8.18649H204.947V10.7351Z" fill="#181818"/>
<path d="M210.969 28.7474H207.905V8.18649H210.969V28.7474Z" fill="#181818"/>
<path d="M235.2 18.4669C235.2 20.0038 234.952 21.4165 234.456 22.7051C233.969 23.9842 233.277 25.0915 232.379 26.0269C231.482 26.9529 230.408 27.6735 229.158 28.189C227.907 28.7044 226.519 28.9622 224.991 28.9622C223.474 28.9622 222.085 28.7044 220.825 28.189C219.574 27.6735 218.5 26.9529 217.603 26.0269C216.715 25.0915 216.023 23.9842 215.527 22.7051C215.031 21.4165 214.782 20.0038 214.782 18.4669C214.782 16.9397 215.031 15.5317 215.527 14.2431C216.023 12.9544 216.715 11.8472 217.603 10.9213C218.5 9.98581 219.574 9.26036 220.825 8.7449C222.085 8.2199 223.474 7.9574 224.991 7.9574C226.519 7.9574 227.907 8.2199 229.158 8.7449C230.408 9.26036 231.482 9.98581 232.379 10.9213C233.277 11.8472 233.969 12.9544 234.456 14.2431C234.952 15.5317 235.2 16.9397 235.2 18.4669ZM232.079 18.4669C232.079 17.2451 231.912 16.1474 231.578 15.1738C231.244 14.2001 230.766 13.3744 230.146 12.6967C229.535 12.019 228.79 11.4988 227.912 11.136C227.044 10.7733 226.07 10.5919 224.991 10.5919C223.913 10.5919 222.934 10.7733 222.056 11.136C221.187 11.4988 220.443 12.019 219.822 12.6967C219.202 13.3744 218.725 14.2001 218.391 15.1738C218.056 16.1474 217.889 17.2451 217.889 18.4669C217.889 19.6983 218.056 20.8008 218.391 21.7744C218.725 22.7385 219.202 23.5595 219.822 24.2372C220.443 24.9149 221.187 25.4351 222.056 25.7979C222.934 26.151 223.913 26.3276 224.991 26.3276C226.07 26.3276 227.044 26.151 227.912 25.7979C228.79 25.4351 229.535 24.9149 230.146 24.2372C230.766 23.5595 231.244 22.7385 231.578 21.7744C231.912 20.8008 232.079 19.6983 232.079 18.4669Z" fill="#181818"/>
<path d="M255.868 8.18649V28.7474H254.322C254.083 28.7474 253.883 28.7045 253.72 28.6185C253.568 28.5326 253.41 28.3942 253.248 28.2033L241.636 13.1835C241.655 13.4413 241.669 13.6942 241.679 13.9424C241.698 14.1906 241.707 14.4244 241.707 14.644V28.7474H239.03V8.18649H240.605C240.872 8.18649 241.073 8.2199 241.206 8.28672C241.34 8.34399 241.488 8.4824 241.65 8.70195L253.291 23.736C253.262 23.4592 253.238 23.1919 253.219 22.9342C253.21 22.6669 253.205 22.4188 253.205 22.1897V8.18649H255.868Z" fill="#181818"/>
</svg>
