<svg width="225" height="35" viewBox="0 0 164 23" fill="none" xmlns="http://www.w3.org/2000/svg">
<g clip-path="url(#clip0_2_46)">
<path d="M15.3334 5.58325V18.4166L25.4167 11.9999L15.3334 5.58325Z" fill="white"/>
</g>
<path d="M3.51 11.3315H4.14C4.368 11.3315 4.551 11.3045 4.689 11.2505C4.833 11.1905 4.962 11.0915 5.076 10.9535L9.189 6.1745C9.321 6.0125 9.456 5.9015 9.594 5.8415C9.732 5.7755 9.903 5.7425 10.107 5.7425H11.745L6.957 11.2505C6.837 11.4065 6.717 11.5325 6.597 11.6285C6.483 11.7245 6.363 11.8055 6.237 11.8715C6.567 11.9855 6.855 12.2165 7.101 12.5645L12.078 18.6665H10.413C10.293 18.6665 10.188 18.6575 10.098 18.6395C10.014 18.6215 9.939 18.5975 9.873 18.5675C9.813 18.5315 9.756 18.4895 9.702 18.4415C9.654 18.3935 9.609 18.3365 9.567 18.2705L5.31 13.2305C5.25 13.1525 5.19 13.0865 5.13 13.0325C5.07 12.9785 5.001 12.9365 4.923 12.9065C4.845 12.8705 4.755 12.8465 4.653 12.8345C4.551 12.8165 4.431 12.8075 4.293 12.8075H3.51V18.6665H1.593V5.7425H3.51V11.3315ZM38.5692 12.2045C38.5692 13.1705 38.4132 14.0495 38.1012 14.8415C37.7952 15.6335 37.3602 16.3145 36.7962 16.8845C36.2322 17.4485 35.5572 17.8865 34.7712 18.1985C33.9852 18.5105 33.1122 18.6665 32.1522 18.6665H27.2922V5.7425H32.1522C33.1122 5.7425 33.9852 5.8985 34.7712 6.2105C35.5572 6.5225 36.2322 6.9635 36.7962 7.5335C37.3602 8.0975 37.7952 8.7785 38.1012 9.5765C38.4132 10.3685 38.5692 11.2445 38.5692 12.2045ZM36.6072 12.2045C36.6072 11.4365 36.5022 10.7495 36.2922 10.1435C36.0822 9.5315 35.7822 9.0155 35.3922 8.5955C35.0082 8.1695 34.5402 7.8455 33.9882 7.6235C33.4422 7.4015 32.8302 7.2905 32.1522 7.2905H29.2182V17.1185H32.1522C32.8302 17.1185 33.4422 17.0075 33.9882 16.7855C34.5402 16.5635 35.0082 16.2425 35.3922 15.8225C35.7822 15.3965 36.0822 14.8805 36.2922 14.2745C36.5022 13.6685 36.6072 12.9785 36.6072 12.2045ZM49.4533 12.3935C49.9393 12.3935 50.3653 12.3305 50.7313 12.2045C51.1033 12.0785 51.4123 11.9015 51.6583 11.6735C51.9103 11.4395 52.0993 11.1635 52.2253 10.8455C52.3513 10.5215 52.4143 10.1645 52.4143 9.7745C52.4143 8.9885 52.1683 8.3705 51.6763 7.9205C51.1903 7.4705 50.4493 7.2455 49.4533 7.2455H47.4553V12.3935H49.4533ZM49.4533 5.7425C50.2813 5.7425 51.0013 5.8385 51.6133 6.0305C52.2253 6.2225 52.7323 6.4955 53.1343 6.8495C53.5363 7.1975 53.8333 7.6205 54.0253 8.1185C54.2233 8.6165 54.3223 9.1685 54.3223 9.7745C54.3223 10.3805 54.2173 10.9385 54.0073 11.4485C53.7973 11.9525 53.4883 12.3875 53.0803 12.7535C52.6723 13.1195 52.1623 13.4045 51.5503 13.6085C50.9443 13.8065 50.2453 13.9055 49.4533 13.9055H47.4553V18.6665H45.5383V5.7425H49.4533ZM60.0998 11.9705C60.5918 11.9705 61.0238 11.9105 61.3958 11.7905C61.7738 11.6705 62.0888 11.5025 62.3408 11.2865C62.5928 11.0645 62.7818 10.8035 62.9078 10.5035C63.0338 10.1975 63.0968 9.8615 63.0968 9.4955C63.0968 8.7515 62.8508 8.1905 62.3588 7.8125C61.8728 7.4345 61.1408 7.2455 60.1628 7.2455H58.3538V11.9705H60.0998ZM66.1298 18.6665H64.4198C64.0778 18.6665 63.8288 18.5315 63.6728 18.2615L60.4778 13.7795C60.3758 13.6295 60.2648 13.5245 60.1448 13.4645C60.0248 13.3985 59.8448 13.3655 59.6048 13.3655H58.3538V18.6665H56.4368V5.7425H60.1628C60.9968 5.7425 61.7138 5.8295 62.3138 6.0035C62.9198 6.1715 63.4178 6.4145 63.8078 6.7325C64.2038 7.0445 64.4948 7.4225 64.6808 7.8665C64.8728 8.3105 64.9688 8.8085 64.9688 9.3605C64.9688 9.8105 64.8997 10.2335 64.7617 10.6295C64.6237 11.0255 64.4198 11.3825 64.1498 11.7005C63.8858 12.0125 63.5618 12.2825 63.1778 12.5105C62.7938 12.7385 62.3588 12.9125 61.8728 13.0325C62.1128 13.1765 62.3198 13.3775 62.4938 13.6355L66.1298 18.6665ZM79.6936 12.2045C79.6936 13.1705 79.5376 14.0585 79.2256 14.8685C78.9196 15.6725 78.4846 16.3685 77.9206 16.9565C77.3566 17.5385 76.6816 17.9915 75.8956 18.3155C75.1096 18.6395 74.2366 18.8015 73.2766 18.8015C72.3226 18.8015 71.4496 18.6395 70.6576 18.3155C69.8716 17.9915 69.1966 17.5385 68.6326 16.9565C68.0746 16.3685 67.6396 15.6725 67.3276 14.8685C67.0156 14.0585 66.8596 13.1705 66.8596 12.2045C66.8596 11.2445 67.0156 10.3595 67.3276 9.5495C67.6396 8.7395 68.0746 8.0435 68.6326 7.4615C69.1966 6.8735 69.8716 6.4175 70.6576 6.0935C71.4496 5.7635 72.3226 5.5985 73.2766 5.5985C74.2366 5.5985 75.1096 5.7635 75.8956 6.0935C76.6816 6.4175 77.3566 6.8735 77.9206 7.4615C78.4846 8.0435 78.9196 8.7395 79.2256 9.5495C79.5376 10.3595 79.6936 11.2445 79.6936 12.2045ZM77.7316 12.2045C77.7316 11.4365 77.6266 10.7465 77.4166 10.1345C77.2066 9.5225 76.9066 9.0035 76.5166 8.5775C76.1326 8.1515 75.6646 7.8245 75.1126 7.5965C74.5666 7.3685 73.9546 7.2545 73.2766 7.2545C72.5986 7.2545 71.9836 7.3685 71.4316 7.5965C70.8856 7.8245 70.4176 8.1515 70.0276 8.5775C69.6376 9.0035 69.3376 9.5225 69.1276 10.1345C68.9176 10.7465 68.8126 11.4365 68.8126 12.2045C68.8126 12.9785 68.9176 13.6715 69.1276 14.2835C69.3376 14.8895 69.6376 15.4055 70.0276 15.8315C70.4176 16.2575 70.8856 16.5845 71.4316 16.8125C71.9836 17.0345 72.5986 17.1455 73.2766 17.1455C73.9546 17.1455 74.5666 17.0345 75.1126 16.8125C75.6646 16.5845 76.1326 16.2575 76.5166 15.8315C76.9066 15.4055 77.2066 14.8895 77.4166 14.2835C77.6266 13.6715 77.7316 12.9785 77.7316 12.2045ZM93.3778 12.2045C93.3778 13.1705 93.2218 14.0495 92.9098 14.8415C92.6038 15.6335 92.1688 16.3145 91.6048 16.8845C91.0408 17.4485 90.3658 17.8865 89.5798 18.1985C88.7938 18.5105 87.9208 18.6665 86.9608 18.6665H82.1008V5.7425H86.9608C87.9208 5.7425 88.7938 5.8985 89.5798 6.2105C90.3658 6.5225 91.0408 6.9635 91.6048 7.5335C92.1688 8.0975 92.6038 8.7785 92.9098 9.5765C93.2218 10.3685 93.3778 11.2445 93.3778 12.2045ZM91.4158 12.2045C91.4158 11.4365 91.3108 10.7495 91.1008 10.1435C90.8908 9.5315 90.5908 9.0155 90.2008 8.5955C89.8168 8.1695 89.3488 7.8455 88.7968 7.6235C88.2508 7.4015 87.6388 7.2905 86.9608 7.2905H84.0268V17.1185H86.9608C87.6388 17.1185 88.2508 17.0075 88.7968 16.7855C89.3488 16.5635 89.8168 16.2425 90.2008 15.8225C90.5908 15.3965 90.8908 14.8805 91.1008 14.2745C91.3108 13.6685 91.4158 12.9785 91.4158 12.2045ZM100.834 17.1275C101.35 17.1275 101.812 17.0405 102.22 16.8665C102.628 16.6925 102.973 16.4495 103.255 16.1375C103.537 15.8195 103.753 15.4445 103.903 15.0125C104.053 14.5745 104.128 14.0915 104.128 13.5635V5.7425H106.036V13.5635C106.036 14.3195 105.916 15.0185 105.676 15.6605C105.436 16.3025 105.091 16.8575 104.641 17.3255C104.191 17.7935 103.645 18.1595 103.003 18.4235C102.361 18.6875 101.638 18.8195 100.834 18.8195C100.03 18.8195 99.3072 18.6875 98.6652 18.4235C98.0232 18.1595 97.4772 17.7935 97.0272 17.3255C96.5772 16.8575 96.2322 16.3025 95.9922 15.6605C95.7522 15.0185 95.6322 14.3195 95.6322 13.5635V5.7425H97.5492V13.5545C97.5492 14.0825 97.6212 14.5655 97.7652 15.0035C97.9152 15.4415 98.1312 15.8195 98.4132 16.1375C98.6952 16.4495 99.0402 16.6925 99.4482 16.8665C99.8562 17.0405 100.318 17.1275 100.834 17.1275ZM118.093 15.8945C118.201 15.8945 118.294 15.9365 118.372 16.0205L119.128 16.8485C118.6 17.4725 117.955 17.9555 117.193 18.2975C116.437 18.6395 115.525 18.8105 114.457 18.8105C113.521 18.8105 112.672 18.6485 111.91 18.3245C111.154 18.0005 110.506 17.5475 109.966 16.9655C109.432 16.3835 109.018 15.6875 108.724 14.8775C108.43 14.0675 108.283 13.1765 108.283 12.2045C108.283 11.2325 108.436 10.3415 108.742 9.5315C109.054 8.7215 109.489 8.0255 110.047 7.4435C110.605 6.8615 111.271 6.4085 112.045 6.0845C112.825 5.7605 113.686 5.5985 114.628 5.5985C115.546 5.5985 116.362 5.7485 117.076 6.0485C117.79 6.3485 118.411 6.7475 118.939 7.2455L118.309 8.1365C118.267 8.2025 118.213 8.2565 118.147 8.2985C118.087 8.3405 118.006 8.3615 117.904 8.3615C117.79 8.3615 117.655 8.3045 117.499 8.1905C117.349 8.0765 117.148 7.9505 116.896 7.8125C116.65 7.6685 116.344 7.5395 115.978 7.4255C115.612 7.3115 115.156 7.2545 114.61 7.2545C113.968 7.2545 113.38 7.3685 112.846 7.5965C112.312 7.8185 111.85 8.1425 111.46 8.5685C111.076 8.9885 110.776 9.5075 110.56 10.1255C110.35 10.7375 110.245 11.4305 110.245 12.2045C110.245 12.9905 110.356 13.6895 110.578 14.3015C110.8 14.9135 111.106 15.4325 111.496 15.8585C111.886 16.2845 112.345 16.6085 112.873 16.8305C113.401 17.0525 113.971 17.1635 114.583 17.1635C114.955 17.1635 115.288 17.1425 115.582 17.1005C115.882 17.0525 116.155 16.9835 116.401 16.8935C116.653 16.8035 116.89 16.6895 117.112 16.5515C117.334 16.4075 117.553 16.2365 117.769 16.0385C117.817 15.9965 117.868 15.9635 117.922 15.9395C117.976 15.9095 118.033 15.8945 118.093 15.8945ZM129.865 7.3445H125.761V18.6665H123.853V7.3445H119.731V5.7425H129.865V7.3445ZM133.65 18.6665H131.724V5.7425H133.65V18.6665ZM148.881 12.2045C148.881 13.1705 148.725 14.0585 148.413 14.8685C148.107 15.6725 147.672 16.3685 147.108 16.9565C146.544 17.5385 145.869 17.9915 145.083 18.3155C144.297 18.6395 143.424 18.8015 142.464 18.8015C141.51 18.8015 140.637 18.6395 139.845 18.3155C139.059 17.9915 138.384 17.5385 137.82 16.9565C137.262 16.3685 136.827 15.6725 136.515 14.8685C136.203 14.0585 136.047 13.1705 136.047 12.2045C136.047 11.2445 136.203 10.3595 136.515 9.5495C136.827 8.7395 137.262 8.0435 137.82 7.4615C138.384 6.8735 139.059 6.4175 139.845 6.0935C140.637 5.7635 141.51 5.5985 142.464 5.5985C143.424 5.5985 144.297 5.7635 145.083 6.0935C145.869 6.4175 146.544 6.8735 147.108 7.4615C147.672 8.0435 148.107 8.7395 148.413 9.5495C148.725 10.3595 148.881 11.2445 148.881 12.2045ZM146.919 12.2045C146.919 11.4365 146.814 10.7465 146.604 10.1345C146.394 9.5225 146.094 9.0035 145.704 8.5775C145.32 8.1515 144.852 7.8245 144.3 7.5965C143.754 7.3685 143.142 7.2545 142.464 7.2545C141.786 7.2545 141.171 7.3685 140.619 7.5965C140.073 7.8245 139.605 8.1515 139.215 8.5775C138.825 9.0035 138.525 9.5225 138.315 10.1345C138.105 10.7465 138 11.4365 138 12.2045C138 12.9785 138.105 13.6715 138.315 14.2835C138.525 14.8895 138.825 15.4055 139.215 15.8315C139.605 16.2575 140.073 16.5845 140.619 16.8125C141.171 17.0345 141.786 17.1455 142.464 17.1455C143.142 17.1455 143.754 17.0345 144.3 16.8125C144.852 16.5845 145.32 16.2575 145.704 15.8315C146.094 15.4055 146.394 14.8895 146.604 14.2835C146.814 13.6715 146.919 12.9785 146.919 12.2045ZM161.872 5.7425V18.6665H160.9C160.75 18.6665 160.624 18.6395 160.522 18.5855C160.426 18.5315 160.327 18.4445 160.225 18.3245L152.926 8.8835C152.938 9.0455 152.947 9.2045 152.953 9.3605C152.965 9.5165 152.971 9.6635 152.971 9.8015V18.6665H151.288V5.7425H152.278C152.446 5.7425 152.572 5.7635 152.656 5.8055C152.74 5.8415 152.833 5.9285 152.935 6.0665L160.252 15.5165C160.234 15.3425 160.219 15.1745 160.207 15.0125C160.201 14.8445 160.198 14.6885 160.198 14.5445V5.7425H161.872Z" fill="#FEB62F"/>
<defs>
<clipPath id="clip0_2_46">
<rect width="22" height="22" fill="white" transform="translate(8 1)"/>
</clipPath>
</defs>
</svg>
