<svg width="81" height="81" viewBox="0 0 81 81" fill="none" xmlns="http://www.w3.org/2000/svg">
<path d="M32.4531 58.6028L56.4531 40.6028L32.4531 22.6028V58.6028ZM40.4531 0.602783C18.3731 0.602783 0.453125 18.5228 0.453125 40.6028C0.453125 62.6828 18.3731 80.6028 40.4531 80.6028C62.5331 80.6028 80.4531 62.6828 80.4531 40.6028C80.4531 18.5228 62.5331 0.602783 40.4531 0.602783ZM40.4531 72.6028C22.8131 72.6028 8.45312 58.2428 8.45312 40.6028C8.45312 22.9628 22.8131 8.60278 40.4531 8.60278C58.0931 8.60278 72.4531 22.9628 72.4531 40.6028C72.4531 58.2428 58.0931 72.6028 40.4531 72.6028Z" fill="white"/>
</svg>
