<svg width="84" height="63" viewBox="0 0 84 63" fill="none" xmlns="http://www.w3.org/2000/svg">
<path d="M80.7678 0.0742188C77.9157 3.94496 75.2673 8.22316 72.8226 12.9088C70.5816 17.5944 68.9518 21.9745 67.9332 26.049C68.1369 26.049 68.2388 26.049 68.2388 26.049C68.4425 26.049 68.6463 26.049 68.85 26.049C73.3319 27.0676 76.7952 29.2067 79.2399 32.4663C81.8883 35.7258 83.2125 39.3929 83.2125 43.4673C83.2125 46.7269 82.3976 49.7828 80.7678 52.6349C79.3417 55.2833 77.2026 57.5243 74.3505 59.3578C71.7021 61.1913 68.6463 62.108 65.183 62.108C59.8861 62.108 55.4042 60.4782 51.7372 57.2187C48.0702 53.7554 46.2367 49.0697 46.2367 43.1618C46.2367 36.4389 48.172 28.6974 52.0428 19.9373C56.1173 11.1772 60.8029 4.55614 66.0997 0.0742188H80.7678ZM34.8373 0.0742188C31.9852 3.94496 29.3368 8.22316 26.8921 12.9088C24.6511 17.5944 23.0213 21.9745 22.0027 26.049C22.2064 26.049 22.3083 26.049 22.3083 26.049C22.512 26.049 22.7157 26.049 22.9195 26.049C27.4014 27.0676 30.8647 29.2067 33.3094 32.4663C35.9578 35.7258 37.282 39.3929 37.282 43.4673C37.282 46.7269 36.4671 49.7828 34.8373 52.6349C33.4112 55.2833 31.2721 57.5243 28.42 59.3578C25.7716 61.1913 22.7157 62.108 19.2524 62.108C13.9556 62.108 9.47371 60.4782 5.80669 57.2187C2.13966 53.7554 0.306152 49.0697 0.306152 43.1618C0.306152 36.4389 2.24153 28.6974 6.11227 19.9373C10.1867 11.1772 14.8724 4.55614 20.1692 0.0742188H34.8373Z" fill="#FEB62F"/>
</svg>
