<svg width="463" height="633" viewBox="0 0 463 633" fill="none" xmlns="http://www.w3.org/2000/svg">
<path fill-rule="evenodd" clip-rule="evenodd" d="M316.833 632.573C491.366 632.573 632.853 491.087 632.853 316.554C632.853 142.021 491.366 0.534912 316.833 0.534912C142.301 0.534912 0.813965 142.021 0.813965 316.554C0.813965 491.087 142.301 632.573 316.833 632.573ZM174.042 268.841C209.786 268.841 238.762 239.865 238.762 204.121C238.762 168.377 209.786 139.4 174.042 139.4C138.298 139.4 109.321 168.377 109.321 204.121C109.321 239.865 138.298 268.841 174.042 268.841ZM524.345 204.121C524.345 239.865 495.369 268.841 459.625 268.841C423.881 268.841 394.904 239.865 394.904 204.121C394.904 168.377 423.881 139.4 459.625 139.4C495.369 139.4 524.345 168.377 524.345 204.121ZM459.625 493.708C495.369 493.708 524.345 464.732 524.345 428.988C524.345 393.244 495.369 364.268 459.625 364.268C423.881 364.268 394.904 393.244 394.904 428.988C394.904 464.732 423.881 493.708 459.625 493.708ZM238.762 428.988C238.762 464.732 209.786 493.708 174.042 493.708C138.298 493.708 109.321 464.732 109.321 428.988C109.321 393.244 138.298 364.268 174.042 364.268C209.786 364.268 238.762 393.244 238.762 428.988ZM316.833 336.478C327.837 336.478 336.757 327.558 336.757 316.554C336.757 305.551 327.837 296.63 316.833 296.63C305.83 296.63 296.91 305.551 296.91 316.554C296.91 327.558 305.83 336.478 316.833 336.478Z" fill="url(#paint0_linear_8_319)"/>
<defs>
<linearGradient id="paint0_linear_8_319" x1="-129.985" y1="267.817" x2="346.803" y2="266.241" gradientUnits="userSpaceOnUse">
<stop stop-color="#FEB62F"/>
<stop offset="1" stop-color="#181818" stop-opacity="0"/>
</linearGradient>
</defs>
</svg>
